<svg class="svg-icon" viewBox="0 0 20 20">
							<path fill="none" d="M19.175,4.856L15.138,0.82c-0.295-0.295-0.817-0.295-1.112,0L8.748,6.098c-0.307,0.307-0.307,0.805,0,1.112l1.462,1.462l-1.533,1.535L7.215,8.746c-0.307-0.307-0.805-0.307-1.112,0l-5.278,5.276c-0.307,0.307-0.307,0.805,0,1.112l4.037,4.037c0.154,0.153,0.355,0.23,0.556,0.23c0.201,0,0.403-0.077,0.556-0.23l5.28-5.276c0.148-0.148,0.23-0.347,0.23-0.556c0-0.209-0.083-0.409-0.23-0.556l-1.464-1.464l1.533-1.535l1.462,1.462c0.153,0.153,0.355,0.23,0.556,0.23c0.201,0,0.402-0.077,0.556-0.23l5.278-5.278c0.147-0.147,0.23-0.347,0.23-0.556C19.406,5.203,19.322,5.004,19.175,4.856zM9.585,13.339l-4.167,4.164l-2.925-2.925l4.166-4.164l0.906,0.905l-0.67,0.668c-0.307,0.307-0.307,0.805,0,1.112c0.154,0.153,0.356,0.23,0.556,0.23c0.203,0,0.403-0.077,0.556-0.23l0.67-0.668L9.585,13.339z M13.341,9.578l-0.906-0.906l0.663-0.662c0.307-0.307,0.307-0.805,0-1.112c-0.307-0.307-0.805-0.307-1.112,0L11.322,7.56l-0.906-0.906l4.166-4.166l2.925,2.925L13.341,9.578z"></path></svg>
